<svg xmlns="http://www.w3.org/2000/svg" xmlns:xlink="http://www.w3.org/1999/xlink" width="100%" height="100%" viewBox="10,10,2000,2000">

<defs>
  <filter id="roll">
    <feComposite in="SourceGraphic" in2="BackgroundImage" id="OP" operator="arithmetic" k1="0" k2="1" k3="-1" k4="1"/>
  </filter>
  <filter id="arithmetic">
    <feComposite in="SourceGraphic" in2="BackgroundImage" operator="arithmetic" k1="0" k2="1" k3="-1" k4="1"/>
  </filter>
  <filter id="over">
    <feComposite in="SourceGraphic" in2="BackgroundImage" operator="over"/>
  </filter>
  <filter id="in">
    <feComposite in="SourceGraphic" in2="BackgroundImage" operator="in"/>
  </filter>
  <filter id="out">
    <feComposite in="SourceGraphic" in2="BackgroundImage" operator="out"/>
  </filter>
  <filter id="atop">
    <feComposite in="SourceGraphic" in2="BackgroundImage" operator="atop"/>
  </filter>
  <filter id="xor">
    <feComposite in="SourceGraphic" in2="BackgroundImage" operator="xor"/>
  </filter>
</defs>
<!-- <rect x="0" y="0" height="100%" width="100%" fill="black"/> -->

<!-- <g enable-background="new"> -->
  <rect x="0" y="10%" height="4%" width="100%" fill="magenta" opacity=".5"/>
<!--   <rect x="0" y="14%" height="4%" width="100%" fill="yellow"/>
  <rect x="0" y="18%" height="4%" width="100%" fill="cyan" opacity=".5"/> -->


  
<!--   <image x="20%" y="5%" xlink:href="hipstacat.png" filter="url(#over)" height="23%" width="13%"/>
  <image x="35%" y="5%" xlink:href="hipstacat.png" filter="url(#in)" height="23%" width="13%"/>
  <image x="50%" y="5%" xlink:href="hipstacat.png" filter="url(#out)" height="23%" width="13%"/>
  <image x="65%" y="5%" xlink:href="hipstacat.png" filter="url(#atop)" height="23%" width="13%"/>
  <image x="80%" y="5%" xlink:href="hipstacat.png" filter="url(#xor)" height="23%" width="13%"/> -->
<!-- </g> -->

<image x="5%" y="5%"  xlink:href="hipstacat.png" filter="url(#over)" height="23%" width="13%"/>
<!-- <g enable-background="new">
  <rect x="0" y="250" height="4%" width="100%" fill="white"/>
  <g id="Venn1">
    <ellipse cx="100" cy="250" rx="50" ry="50" fill="red" opacity=".5"/>
    <ellipse cx="150" cy="250" rx="50" ry="50" fill="yellow" opacity="1"/>
    <ellipse cx="125" cy="300" rx="50" ry="50" fill="blue" opacity=".5"/>
  </g>
  <use xlink:href="#Venn1" transform="translate(180,0)"/>
  <text id="T" x="180" y="330" font-size="28" fill="yellow">Arithmetic
  </text>
  <image x="20%" y="200" xlink:href="hipstacat.png" height="23%" width="13%" filter="url(#roll)"/>
</g> -->

<!-- <text x="5%" y="180" font-size="20" fill="yellow">Arithmetic
</text>
<text x="25%" y="180" font-size="20" fill="yellow">over
</text>
<text x="40%" y="180" font-size="20" fill="yellow">in
</text>
<text x="55%" y="180" font-size="20" fill="yellow">out
</text>
<text x="70%" y="180" font-size="20" fill="yellow">atop
</text>
<text x="85%" y="180" font-size="20" fill="yellow">xor
</text>
 -->

</svg>